<svg xmlns="http://www.w3.org/2000/svg" width="1254" height="836" viewBox="0 0 1254 836">
<g>
<path d="M 820.00 499.98 C800.14,501.20 646.00,501.35 646.00,500.16 C646.00,498.70 669.89,478.28 673.78,476.42 C678.70,474.07 688.38,474.07 692.86,476.41 C694.71,477.38 698.26,480.04 700.75,482.33 L 705.26 486.50 L 749.88 486.82 C822.63,487.33 855.31,484.79 896.00,475.48 C932.14,467.21 962.73,455.15 985.50,440.21 C996.12,433.25 1009.00,419.90 1012.99,411.73 C1014.81,408.01 1016.01,404.67 1015.66,404.32 C1015.31,403.98 1010.18,405.73 1004.26,408.23 C962.88,425.70 915.93,438.37 873.72,443.46 C821.00,449.81 789.74,447.43 737.00,433.01 C701.33,423.27 694.52,421.71 675.94,419.01 C655.29,416.02 589.46,413.01 544.31,413.00 C530.94,413.00 521.88,412.61 521.51,412.02 C521.18,411.49 524.15,400.03 528.12,386.57 L 535.33 362.10 L 577.92 361.80 C619.83,361.50 620.57,361.46 625.09,359.24 C629.13,357.25 631.93,353.91 648.09,331.82 C658.22,317.99 668.67,303.60 671.32,299.84 C673.97,296.08 676.47,293.00 676.87,293.00 C677.27,293.00 680.05,295.37 683.05,298.27 C686.05,301.16 690.75,304.83 693.50,306.43 C710.15,316.05 732.20,330.46 734.76,333.38 C736.41,335.26 740.81,341.23 744.54,346.65 C758.91,367.55 767.78,373.88 798.80,385.42 C820.59,393.53 861.42,404.09 864.24,402.35 C864.81,402.00 859.93,399.50 853.39,396.79 C819.85,382.89 777.94,362.25 769.81,355.62 C766.51,352.93 761.17,346.54 755.84,338.88 C744.92,323.22 740.31,318.67 725.75,309.26 C719.29,305.08 714.00,301.39 714.00,301.06 C714.00,300.17 722.68,294.68 729.56,291.21 C738.83,286.55 772.25,276.00 777.77,276.00 C779.39,276.00 795.00,287.11 795.00,288.26 C795.00,288.70 790.05,292.24 784.00,296.13 C777.95,300.03 773.00,303.56 773.00,303.97 C773.00,304.92 781.08,310.33 782.48,310.33 C783.04,310.33 788.49,307.33 794.59,303.66 C800.69,300.00 806.34,297.00 807.16,297.00 C808.42,297.00 821.78,305.54 824.33,307.97 C824.79,308.41 820.40,312.04 814.58,316.04 C808.76,320.03 804.00,323.68 804.00,324.14 C804.00,325.12 812.02,330.34 813.49,330.32 C814.05,330.32 819.06,327.32 824.64,323.66 C830.21,320.00 835.56,317.00 836.51,317.00 C837.47,317.00 842.05,319.33 846.69,322.17 L 855.13 327.35 L 851.84 329.92 C850.03,331.34 845.62,334.77 842.03,337.54 C838.44,340.32 835.56,343.00 835.63,343.51 C835.70,344.01 837.79,345.56 840.27,346.94 L 844.78 349.46 L 855.30 342.23 C861.09,338.25 866.31,335.00 866.90,335.00 C868.46,335.00 885.00,343.32 885.00,344.11 C885.00,344.47 881.96,347.26 878.25,350.30 C874.54,353.34 870.44,356.96 869.14,358.34 L 866.79 360.86 L 871.85 363.42 L 876.91 365.99 L 887.11 357.86 L 897.31 349.73 L 902.41 351.32 C919.86,356.74 942.94,361.58 975.00,366.53 C1007.05,371.48 1015.22,374.33 1021.68,382.80 C1027.68,390.67 1029.39,400.90 1026.41,411.07 C1019.09,436.00 984.98,461.42 936.00,478.46 C901.48,490.46 864.97,497.24 820.00,499.98 ZM 737.12 630.74 L 731.50 633.50 L 696.50 633.73 L 661.50 633.96 L 656.71 631.44 C650.45,628.15 648.01,624.09 648.00,616.98 C648.00,612.74 649.83,605.99 655.85,587.94 C660.17,575.01 664.84,562.62 666.23,560.42 C671.18,552.59 679.18,547.16 688.80,545.12 C695.81,543.64 750.12,543.62 757.03,545.10 C765.63,546.94 771.00,553.61 771.00,562.44 C771.00,565.74 757.09,607.94 754.02,613.97 C750.73,620.41 743.46,627.62 737.12,630.74 ZM 979.59 630.81 L 974.50 633.50 L 930.17 633.79 L 885.84 634.08 L 886.55 631.79 C886.94,630.53 888.77,626.48 890.62,622.80 L 893.98 616.09 L 931.41 615.80 L 968.84 615.50 L 971.37 613.12 C975.79,608.97 978.04,599.21 974.64,598.90 C974.01,598.84 960.14,598.64 943.81,598.45 C911.32,598.08 910.68,597.97 905.62,591.96 C902.25,587.95 902.18,582.24 905.36,572.00 C910.82,554.46 917.36,547.59 931.06,544.99 C933.93,544.44 953.74,544.00 975.20,544.00 L 1014.13 544.00 L 1013.45 546.25 C1013.08,547.49 1011.13,551.65 1009.13,555.50 L 1005.50 562.50 L 931.82 563.50 L 929.92 565.84 C928.88,567.13 927.53,570.04 926.92,572.31 C925.91,576.06 926.00,576.58 928.01,578.21 C930.02,579.84 932.86,580.00 959.14,580.00 C990.47,580.00 992.75,580.33 996.75,585.41 C1000.41,590.07 1000.46,594.55 996.94,605.56 C995.20,611.03 993.14,616.73 992.37,618.24 C989.89,623.06 984.82,628.05 979.59,630.81 ZM 483.39 631.96 C478.20,633.90 475.78,634.00 435.40,634.00 L 392.87 634.00 L 393.56 631.75 C393.95,630.51 395.77,626.49 397.61,622.82 L 400.96 616.13 L 437.73 615.82 C466.03,615.57 475.04,615.19 476.84,614.17 C481.09,611.75 484.62,601.12 481.76,599.35 C481.07,598.93 467.10,598.45 450.71,598.29 C423.18,598.01 420.60,597.84 416.97,595.99 C409.25,592.05 408.17,584.74 413.04,569.54 C417.81,554.65 424.99,547.26 436.89,545.02 C443.08,543.85 521.34,543.60 520.83,544.75 C520.65,545.16 518.59,549.44 516.26,554.25 L 512.02 563.00 L 476.06 563.00 C440.20,563.00 440.11,563.01 437.58,565.25 C436.15,566.52 434.50,569.61 433.79,572.34 L 433.72 572.63 C433.16,574.77 432.76,576.29 433.28,577.37 C434.55,580.00 441.28,580.00 464.44,580.00 L 465.72 580.00 C498.33,580.00 500.40,580.34 503.97,586.19 C505.22,588.23 505.99,591.25 506.00,594.06 C506.00,598.60 501.81,612.60 498.58,618.84 C495.89,624.06 489.29,629.75 483.39,631.96 ZM 866.18 625.25 L 862.80 634.00 L 823.63 634.00 C787.58,634.00 784.19,633.85 780.98,632.17 C777.40,630.28 774.00,625.07 774.00,621.46 C774.00,619.00 793.30,560.28 795.61,555.72 C797.93,551.14 799.94,549.09 804.50,546.64 C808.39,544.56 809.74,544.49 851.75,544.20 C875.54,544.04 895.00,544.15 895.00,544.46 C895.00,544.76 893.22,548.95 891.05,553.76 L 887.10 562.50 L 851.13 563.00 C831.35,563.28 814.90,563.76 814.58,564.09 C814.26,564.41 812.89,567.92 811.54,571.89 C809.75,577.13 809.42,579.22 810.29,579.55 C810.96,579.79 825.73,580.11 843.11,580.25 L 874.73 580.50 L 871.50 589.00 L 868.27 597.50 L 802.61 598.50 L 800.06 605.71 C797.98,611.60 797.75,613.15 798.81,614.21 C799.79,615.19 808.31,615.62 834.83,616.00 L 869.57 616.50 ZM 542.92 616.82 L 537.34 633.50 L 526.67 633.78 C518.77,633.99 516.00,633.75 516.00,632.84 C516.00,631.89 542.54,550.97 544.70,545.35 C545.09,544.33 547.92,544.00 556.21,544.00 C565.39,544.00 567.12,544.24 566.66,545.44 C564.75,550.41 556.00,577.81 556.00,578.81 C556.00,579.75 562.81,579.97 585.25,579.77 L 614.50 579.50 L 626.49 544.00 L 637.25 544.00 C645.22,544.00 647.98,544.32 647.93,545.25 C647.88,545.94 641.25,566.08 633.18,590.00 L 618.50 633.50 L 607.75 633.78 C601.84,633.94 597.00,633.70 597.00,633.25 C597.00,632.80 599.47,625.05 602.49,616.04 C605.51,607.02 607.77,599.44 607.52,599.19 C606.90,598.56 549.69,598.98 549.03,599.62 C548.74,599.91 545.99,607.65 542.92,616.82 ZM 675.35 614.55 C679.33,616.28 719.44,616.56 725.44,614.89 C732.23,613.01 734.27,609.69 740.93,589.72 C744.27,579.70 747.00,570.49 747.00,569.25 C747.00,568.01 746.10,566.10 745.00,565.00 C743.11,563.11 741.67,563.00 718.47,563.00 C691.92,563.00 689.15,563.45 685.29,568.36 C682.34,572.11 670.64,608.30 671.50,611.02 C671.88,612.20 673.61,613.79 675.35,614.55 ZM 709.29 287.23 C705.56,289.63 701.99,291.91 701.36,292.29 C699.97,293.13 693.52,285.49 691.47,280.57 C689.59,276.07 689.60,269.90 691.49,265.36 C693.40,260.79 711.92,236.09 716.03,232.63 C719.38,229.81 722.81,229.31 726.32,231.14 C729.98,233.05 765.49,264.84 764.77,265.56 C764.59,265.75 756.94,268.17 747.78,270.94 C729.20,276.58 719.35,280.74 709.29,287.23 ZM 866.70 402.90 C865.90,403.70 866.40,403.99 868.55,403.97 C871.14,403.94 871.27,403.81 869.65,402.87 C868.33,402.10 867.49,402.11 866.70,402.90 Z" fill="rgb(4,6,7)" data-index="0" style="opacity: 1;"></path>
<path d="M 866.70 402.90 C867.49,402.11 868.33,402.10 869.65,402.87 C871.27,403.81 871.14,403.94 868.55,403.97 C866.40,403.99 865.90,403.70 866.70,402.90 Z" fill="rgb(78,78,78)" data-index="1"></path>
<path d="M 627.06 497.90 L 625.93 500.00 L 514.21 499.92 C510.10,499.91 506.13,499.91 502.30,499.91 C407.17,499.84 397.14,499.84 388.93,495.97 C387.64,495.36 386.38,494.66 384.85,493.84 C377.70,490.03 373.65,485.61 369.85,477.50 C366.71,470.78 365.85,462.52 367.34,453.25 L 368.19 448.00 L 326.50 448.00 C289.15,448.00 284.51,447.82 281.95,446.31 C275.76,442.66 275.58,434.33 281.57,429.08 C283.49,427.38 285.17,425.90 285.28,425.79 C285.40,425.67 305.74,425.33 330.48,425.04 L 375.46 424.50 L 380.08 408.75 L 384.70 393.00 L 313.30 393.00 C310.49,393.00 307.78,393.00 305.17,393.00 C246.26,393.01 238.30,393.01 235.73,389.29 C235.21,388.54 234.91,387.64 234.46,386.57 C232.86,382.72 233.92,377.29 236.79,374.69 C237.36,374.17 237.86,373.72 238.39,373.31 C242.75,370.00 249.61,370.00 316.99,370.00 L 318.97 370.00 C359.14,370.00 392.00,369.79 392.00,369.53 C392.00,369.12 399.06,344.63 400.59,339.75 C401.10,338.10 398.20,338.00 349.11,338.00 C310.91,338.00 296.40,337.68 294.47,336.81 C291.54,335.47 289.00,331.28 289.00,327.80 C289.01,324.47 292.48,319.29 296.24,316.99 C299.39,315.08 301.38,315.01 353.58,315.00 L 407.66 315.00 L 411.46 302.25 C413.55,295.24 416.72,284.55 418.50,278.50 C432.61,230.53 444.32,192.53 446.54,187.50 C453.94,170.75 467.25,156.85 483.46,148.93 C486.29,147.54 488.40,146.40 490.59,145.46 C500.96,141.01 513.24,141.01 612.87,141.02 C619.92,141.02 627.41,141.02 635.37,141.02 C762.11,141.00 763.23,141.02 761.87,142.96 C761.12,144.03 756.70,150.45 752.06,157.21 C747.41,163.97 741.11,172.96 738.06,177.18 C735.00,181.41 728.25,190.97 723.05,198.43 L 713.60 212.00 L 618.70 212.00 C613.31,212.00 608.20,212.00 603.38,212.00 C528.37,211.99 521.32,211.98 518.24,215.48 C517.72,216.07 517.32,216.76 516.72,217.56 C515.01,219.86 500.00,268.20 500.00,271.41 C500.00,272.83 507.50,273.01 574.56,273.24 L 649.13 273.50 L 601.31 342.50 L 541.65 342.76 C508.84,342.90 482.00,343.21 482.00,343.45 C482.00,344.07 469.86,384.25 463.92,403.29 C458.26,421.44 457.83,425.93 461.44,428.77 C463.78,430.61 466.87,430.72 534.69,431.29 C603.06,431.86 666.17,433.57 668.74,434.92 C670.01,435.59 655.45,457.88 636.92,483.65 C632.11,490.33 627.67,496.74 627.06,497.90 ZM 350.68 632.75 C350.07,633.71 341.05,634.00 311.19,634.00 C274.58,633.99 272.33,633.89 269.30,632.04 C265.65,629.82 263.00,625.35 263.00,621.44 C263.00,619.97 265.89,609.94 269.42,599.14 C272.94,588.34 277.48,574.33 279.49,568.00 C284.01,553.79 286.52,549.78 292.97,546.51 L 297.93 544.00 L 339.97 544.00 C363.09,544.00 382.00,544.14 382.00,544.31 C382.00,544.47 380.29,548.64 378.20,553.56 L 374.39 562.50 L 339.34 562.76 C336.82,562.78 334.47,562.80 332.28,562.81 C309.94,562.95 304.24,562.99 301.90,565.82 C300.87,567.06 300.50,568.85 299.64,571.43 C299.39,572.16 299.15,572.83 298.93,573.45 C298.18,575.53 297.66,576.96 298.12,577.94 C299.11,580.05 304.64,580.04 322.17,580.01 C324.56,580.00 327.16,580.00 330.00,580.00 C347.60,580.00 362.00,580.29 362.00,580.65 C362.00,581.01 360.57,585.06 358.83,589.65 L 355.66 598.00 L 291.28 598.00 L 289.05 605.05 C287.83,608.93 287.08,612.76 287.38,613.55 C287.85,614.78 293.26,615.00 322.47,615.00 C349.43,615.00 357.00,615.27 357.00,616.25 C356.99,617.62 351.97,630.75 350.68,632.75 ZM 931.50 666.46 L 914.50 669.00 L 658.40 669.00 C411.57,669.00 402.25,668.93 400.65,667.17 C398.44,664.72 398.57,663.41 401.22,661.56 C403.22,660.16 431.80,660.00 685.47,660.03 C840.08,660.05 966.00,660.43 966.00,660.88 L 966.00 660.88 C965.17,661.34 960.90,662.21 956.50,662.82 C952.10,663.43 940.85,665.07 931.50,666.46 Z" fill="rgb(252,84,12)" data-index="2" style="opacity: 1;"></path>

</g>
</svg>